<?xml version="1.0" standalone="no"?>
<!DOCTYPE svg PUBLIC "-//W3C//DTD SVG 20010904//EN"
 "http://www.w3.org/TR/2001/REC-SVG-20010904/DTD/svg10.dtd">
<svg version="1.0" xmlns="http://www.w3.org/2000/svg"
 width="1200.000000pt" height="1200.000000pt" viewBox="0 0 1200.000000 1200.000000"
 preserveAspectRatio="xMidYMid meet">

<g transform="translate(0.000000,1200.000000) scale(0.100000,-0.100000)"
fill="#000000" stroke="none">
<path d="M3705 7411 c-7 -13 -985 -2804 -985 -2813 0 -5 93 -8 208 -8 l207 0
488 1393 c268 765 490 1402 494 1415 l5 22 -205 0 c-116 0 -208 -4 -212 -9z"/>
<path d="M4627 6483 c-124 -280 -332 -746 -462 -1038 -131 -291 -239 -536
-242 -543 -4 -10 46 -12 247 -10 l252 3 91 222 92 223 486 0 487 0 17 -42 c9
-24 51 -125 92 -225 l75 -183 255 0 254 0 -6 21 c-4 12 -212 479 -462 1038
-250 559 -457 1022 -460 1029 -4 9 -63 12 -247 12 l-243 0 -226 -507z m632
-377 c89 -214 160 -391 158 -393 -2 -2 -150 -2 -328 -1 l-325 3 158 380 c86
209 160 386 163 394 3 8 7 12 9 10 2 -2 77 -179 165 -393z"/>
<path d="M6570 5940 l0 -1050 230 0 230 0 2 606 3 606 120 -197 c66 -109 201
-331 300 -494 l180 -296 112 -3 112 -3 189 318 c105 175 242 406 306 513 64
107 116 188 116 180 0 -8 2 -121 4 -250 2 -129 4 -403 5 -607 l1 -373 231 0
232 0 -6 773 c-4 424 -7 897 -7 1050 l0 277 -202 -2 -203 -3 -381 -643 c-209
-353 -383 -644 -385 -646 -2 -3 -180 287 -394 644 l-390 649 -202 1 -203 0 0
-1050z"/>
<path d="M2385 6616 c-88 -35 -406 -156 -707 -271 l-548 -208 0 -198 c0 -110
2 -199 4 -199 3 0 1352 -513 1409 -535 16 -7 17 6 17 183 l0 190 -67 24 c-38
14 -258 94 -490 178 -233 85 -423 156 -423 160 0 3 220 87 490 186 l490 179 0
188 c0 103 -3 187 -7 186 -5 -1 -80 -29 -168 -63z"/>
<path d="M9446 6673 c-3 -3 -6 -87 -6 -185 l0 -179 29 -12 c16 -7 238 -88 495
-182 256 -93 466 -172 466 -175 0 -3 -223 -86 -496 -184 l-495 -180 3 -185 c3
-159 5 -186 18 -183 21 5 1381 522 1403 534 16 8 17 26 17 199 -1 166 -4 190
-18 198 -9 5 -327 127 -707 271 -379 144 -693 264 -696 266 -3 2 -9 1 -13 -3z"/>
</g>
</svg>
